# xmcd
#
# Track frame offsets: 
#        150
#        9462
#        21842
#        35207
#        48940
#        61507
#        73282
#        83645
#        93925
#        106775
#        120092
#        133665
#        148310
#        160487
#        173452
#        189217
#        199865
#        211510
#        224547
#        236065
#
# Disc length: 3315 seconds
#
# Revision: 2
# Processed by: cddbd v1.5.2PL0 Copyright (c) Steve Scherf et al.
# Submitted via: ExactAudioCopy v1.3
#
DISCID=0d0cf114
DTITLE=Various Artist - Kool Country Classics
DYEAR=1900
DGENRE=Country
TTITLE0=Frankie Laine - Rawhide
TTITLE1=Johnny Preston - Running Bear
TTITLE2=Gene Pitney - The Man Who Shot Liberty Valance
TTITLE3=B.J. Thomas - Rain Drops Keep Falling On My Head
TTITLE4=Johnny Cash - Folsom Prison Blues
TTITLE5=Tammy Wynette - I Don't Wanna Play House
TTITLE6=Stonewall Jackson - Waterloo
TTITLE7=Ferlin Husky - On The Wings Of A Dove
TTITLE8=Claude King - Wolverton Mountain
TTITLE9=Lynn Anderson - Rose Garden
TTITLE10=Jimmy Dean - Big John
TTITLE11=Don Gibson - I Can't Stop Loving You
TTITLE12=Conway Twitty - Linda On My Mind
TTITLE13=Faron Young - It's Four In The Morning
TTITLE14=Charley Pride - Me And Bobby McGee
TTITLE15=Conway Twitty - Its Only Make Belive
TTITLE16=Patsy Cline - Walkin' After Midnight
TTITLE17=George Jones - Things Have Gone To Pieces
TTITLE18=Sammi Smith - Help Me Make It Through The Night
TTITLE19=Frankie Laine - High Noon (Do Not Forsake Me)
EXTD=
EXTT0=
EXTT1=
EXTT2=
EXTT3=
EXTT4=
EXTT5=
EXTT6=
EXTT7=
EXTT8=
EXTT9=
EXTT10=
EXTT11=
EXTT12=
EXTT13=
EXTT14=
EXTT15=
EXTT16=
EXTT17=
EXTT18=
EXTT19=
PLAYORDER=
